<?xml version="1.0" encoding="UTF-8"?>
<svg id="Layer_1" xmlns="http://www.w3.org/2000/svg" version="1.1" viewBox="0 0 158.5 29.6">
  <!-- Generator: Adobe Illustrator 29.0.1, SVG Export Plug-In . SVG Version: 2.1.0 Build 192)  -->
  <defs>
    <style>
      .st0 {
        fill: #212121;
        font-family: Inter18pt-Bold, 'Inter 18pt';
        font-size: 24px;
        font-weight: 700;
        letter-spacing: 0em;
      }

      .st1 {
        fill: #30708f;
      }
    </style>
  </defs>
  <g>
    <g>
      <polygon class="st1" points="6.5 8.1 4.6 9.2 2.7 8.1 4.6 7 6.5 8.1"/>
      <polygon class="st1" points="13.9 3.8 12.1 4.9 10.2 3.8 12.1 2.7 13.9 3.8"/>
      <polygon class="st1" points="21.5 8.2 19.6 9.2 17.7 8.1 19.6 7.1 21.5 8.2"/>
      <polygon class="st1" points="14 12.5 12.1 13.5 10.3 12.5 12.1 11.4 14 12.5"/>
      <polygon class="st1" points="17.7 10.3 15.9 11.4 14 10.3 15.9 9.2 17.7 10.3"/>
      <polygon class="st1" points="10.2 6 8.3 7 6.5 5.9 8.3 4.9 10.2 6"/>
      <polygon class="st1" points="17.7 6 15.8 7.1 14 6 15.8 4.9 17.7 6"/>
      <polygon class="st1" points="14 8.1 12.1 9.2 10.2 8.1 12.1 7 14 8.1"/>
      <polygon class="st1" points="10.2 10.3 8.4 11.4 6.5 10.3 8.4 9.2 10.2 10.3"/>
    </g>
    <polygon class="st1" points="9.6 18 9.6 18 7.7 16.9 5.9 15.8 5.9 18 7.7 19.1 9.6 20.2 9.6 22.3 7.7 21.3 5.9 20.2 4 19.1 4 18.1 4 16.9 4 14.8 4 14.5 4 12.6 5.9 13.7 7.7 14.7 9.6 15.8 9.6 15.8 11.5 16.9 11.5 14.7 9.6 13.6 7.7 12.6 5.9 11.5 5.9 11.5 4 10.4 2.1 9.3 2.1 20.2 4 21.3 5.9 22.4 9.6 24.5 11.5 25.6 11.5 19.1 9.6 18"/>
    <path class="st1" d="M20.5,10.4l-1.9,1.1h0s-1.9,1.1-1.9,1.1l-1.9,1.1-1.9,1.1v10.9l1.9-1.1,3.7-2.2,1.9-1.1,1.9-1.1v-10.9l-1.9,1.1ZM16.7,14.7l1.9-1.1,1.9-1.1v2.2l-1.9,1.1-1.3.7h0l-2.4,1.4v-2.2l1.9-1.1ZM20.5,19.1l-1.9,1.1-1.9,1.1-1.9,1.1v-2.2l1.9-1.1h0s1.9-1.1,1.9-1.1l1.9-1.1v2.2Z"/>
  </g>
  <text class="st0" transform="translate(27.9 22.8)"><tspan x="0" y="0">Groupbook</tspan></text>
</svg>